<?xml version="1.0" standalone="no"?>
<!DOCTYPE svg PUBLIC "-//W3C//DTD SVG 20010904//EN"
 "http://www.w3.org/TR/2001/REC-SVG-20010904/DTD/svg10.dtd">
<svg version="1.0" xmlns="http://www.w3.org/2000/svg"
 width="460.000000pt" height="460.000000pt" viewBox="0 0 460.000000 460.000000"
 preserveAspectRatio="xMidYMid meet">
<metadata>
Created by potrace 1.14, written by Peter Selinger 2001-2017
</metadata>
<g transform="translate(0.000000,460.000000) scale(0.100000,-0.100000)"
fill="#000000" stroke="none">
<path d="M1910 3895 c-36 -14 -72 -29 -81 -34 -8 -5 -43 -16 -77 -25 -78 -20
-140 -51 -172 -86 -14 -16 -37 -34 -52 -42 -96 -48 -262 -269 -300 -398 -8
-30 -27 -86 -41 -123 -14 -37 -35 -109 -47 -158 -23 -100 -21 -150 11 -232 11
-26 19 -56 19 -65 0 -10 9 -25 20 -35 20 -17 20 -17 1 -38 -11 -12 -30 -27
-43 -33 -31 -15 -32 -67 -2 -80 20 -9 34 -34 49 -83 4 -13 14 -23 25 -23 25 0
34 -16 14 -24 -11 -4 -14 -12 -9 -24 4 -9 11 -33 16 -52 4 -19 15 -62 23 -95
24 -92 28 -109 28 -127 -1 -10 15 -64 34 -120 19 -56 34 -110 34 -120 0 -10 8
-31 17 -46 36 -56 147 -198 184 -236 22 -21 39 -41 39 -45 0 -10 100 -68 141
-80 38 -12 59 -43 59 -86 0 -33 -58 -143 -80 -150 -10 -3 -29 -16 -42 -28 -72
-65 -92 -79 -132 -92 -23 -8 -83 -37 -133 -64 -49 -27 -103 -53 -119 -57 -147
-35 -586 -231 -669 -298 -22 -18 -51 -39 -64 -46 -25 -13 -66 -57 -88 -94 -21
-35 -53 -107 -53 -118 0 -13 -59 -128 -77 -149 -11 -13 -94 -218 -110 -271 -5
-17 103 -18 2181 -18 l2186 0 0 417 0 416 -32 41 c-110 143 -375 288 -573 315
-44 6 -102 18 -130 26 -27 8 -98 28 -156 45 -115 32 -175 55 -181 68 -3 9 -82
56 -143 85 -51 25 -88 60 -130 123 -33 50 -83 84 -122 84 -38 0 -223 -34 -223
-41 0 -4 7 -10 16 -13 9 -4 14 -13 10 -22 -3 -9 -2 -12 5 -9 13 8 51 -24 43
-36 -3 -5 2 -17 11 -26 32 -31 -5 -187 -59 -247 -19 -22 -40 -51 -48 -65 -7
-14 -29 -39 -48 -57 -19 -18 -49 -46 -67 -62 -39 -38 -110 -75 -129 -68 -7 3
-18 -3 -24 -14 -5 -10 -23 -21 -40 -25 -17 -4 -28 -11 -25 -15 3 -5 -4 -14
-16 -20 -16 -9 -24 -8 -39 5 -11 10 -41 18 -77 20 -45 3 -61 8 -72 24 -7 12
-17 21 -21 21 -17 0 -118 113 -113 126 3 8 -2 17 -11 20 -9 3 -16 15 -16 25 0
24 -57 85 -92 98 -29 11 -59 66 -53 98 2 10 7 35 10 56 5 30 13 41 43 56 20
10 52 22 70 26 55 12 35 37 -23 28 -20 -3 -35 0 -44 10 -7 9 -19 13 -26 10
-20 -7 -85 16 -122 44 -26 19 -33 31 -33 58 0 19 -4 37 -10 40 -15 9 -12 45 4
45 33 0 24 45 -14 77 -13 11 -13 12 3 13 17 0 25 20 8 20 -5 0 -26 16 -46 35
-32 30 -36 38 -29 62 4 16 8 32 8 38 1 5 30 24 66 42 57 29 71 32 115 26 51
-6 76 -25 95 -71 8 -18 17 -23 38 -20 63 7 79 127 33 249 -12 30 -21 62 -21
71 0 17 -38 98 -50 108 -4 3 -10 24 -13 46 -6 36 -4 42 13 47 13 3 22 17 27
37 5 28 15 36 72 63 101 46 111 58 111 134 0 80 4 81 159 79 l115 -1 23 -59
c12 -32 26 -95 31 -141 7 -61 16 -91 33 -114 26 -35 45 -36 41 0 -3 28 27 243
39 276 8 22 30 23 76 1 15 -7 36 -7 75 3 29 7 58 12 65 11 7 -2 14 12 17 30
11 73 27 380 21 410 -16 88 -32 129 -76 196 -26 40 -53 90 -60 110 -11 37 -78
107 -111 118 -10 3 -18 9 -18 13 0 20 -77 65 -123 73 -39 7 -61 19 -96 53
-148 143 -456 215 -631 150z m130 -485 c8 5 19 5 25 1 5 -5 29 -12 53 -16 27
-4 48 -14 55 -27 7 -11 39 -33 72 -49 33 -16 78 -40 101 -52 22 -13 45 -22 51
-20 6 2 31 -34 54 -81 24 -47 49 -86 56 -86 7 0 13 -7 13 -15 0 -9 9 -33 20
-55 11 -22 20 -52 20 -68 0 -16 7 -48 15 -71 14 -40 14 -41 -8 -41 -12 0 -60
7 -107 15 -107 19 -101 19 -94 -9 7 -31 -2 -47 -22 -39 -11 4 -15 15 -12 35 4
23 2 27 -13 23 -11 -4 -21 1 -28 12 -8 15 -26 19 -120 21 -102 3 -110 5 -101
21 6 12 30 21 76 29 36 6 69 13 71 16 6 6 -36 59 -58 74 -18 12 -160 19 -176
9 -5 -3 -35 -5 -66 -3 -31 1 -54 -1 -51 -6 3 -4 -1 -8 -8 -8 -18 0 -16 47 4
90 9 19 19 43 22 53 3 10 11 17 18 15 15 -5 48 27 48 47 0 18 -27 20 -33 3 -2
-7 -2 -3 0 10 2 12 -1 22 -6 22 -11 0 -8 66 3 77 3 3 6 1 6 -5 0 -7 7 -12 16
-12 11 0 13 6 9 19 -4 13 1 24 13 33 10 7 21 21 25 31 5 14 11 16 25 8 11 -6
24 -6 32 -1z m-280 -529 c0 -4 12 -8 27 -9 15 -1 34 -8 41 -16 12 -12 10 -17
-18 -31 -18 -9 -42 -19 -55 -21 -19 -3 -22 0 -19 23 1 15 -2 33 -7 40 -14 16
-3 34 16 26 8 -3 15 -8 15 -12z m500 -14 c17 -9 26 -22 28 -45 2 -17 1 -32 -2
-32 -3 0 -39 14 -81 30 -42 17 -82 30 -90 30 -8 0 -15 4 -15 9 0 21 123 27
160 8z m160 -52 c0 -8 -4 -17 -10 -20 -6 -4 -10 5 -10 20 0 15 4 24 10 20 6
-3 10 -12 10 -20z m-575 -42 c13 -75 29 -106 61 -119 30 -13 45 -37 48 -79 0
-11 5 -23 10 -27 6 -4 -2 -12 -17 -19 -39 -17 -103 5 -123 43 -8 15 -23 32
-33 38 -11 5 -30 27 -42 47 -13 21 -28 42 -33 46 -7 4 -3 7 9 5 17 -2 20 3 20
30 0 29 5 36 40 52 22 11 43 19 47 20 4 0 10 -17 13 -37z m465 -89 c0 -74 -16
-89 -119 -109 -34 -7 -34 -7 -17 16 23 34 20 56 -11 73 -18 10 -22 15 -12 16
9 0 32 11 52 24 33 23 82 36 100 28 4 -2 7 -23 7 -48z m-670 2 c0 -3 -4 -8
-10 -11 -5 -3 -10 -1 -10 4 0 6 5 11 10 11 6 0 10 -2 10 -4z m117 -72 c-8 -9
49 -81 75 -95 11 -6 41 -14 67 -18 41 -6 46 -9 43 -30 -1 -13 7 -48 18 -77 11
-30 17 -60 14 -69 -5 -11 -2 -14 10 -9 19 7 66 -31 66 -52 0 -21 58 -81 84
-88 15 -4 28 -18 35 -37 17 -49 15 -62 -9 -49 -11 6 -20 17 -20 25 0 8 -5 15
-11 15 -5 0 -7 -4 -4 -10 3 -5 -1 -10 -9 -10 -8 0 -28 -14 -45 -32 -25 -27
-36 -31 -73 -30 -45 2 -78 7 -141 23 -31 8 -38 14 -35 32 2 15 11 23 28 26 29
4 40 17 40 50 0 19 -3 21 -14 12 -10 -8 -16 -9 -21 -1 -3 6 -10 8 -15 5 -13
-8 -32 22 -28 47 2 19 9 23 35 23 41 0 61 18 43 39 -27 34 -122 40 -134 10 -4
-10 3 -14 22 -15 15 0 21 -3 14 -6 -6 -2 -10 -8 -7 -13 7 -11 -42 -22 -66 -15
-10 4 -19 12 -19 20 0 7 -7 15 -15 19 -20 7 -20 84 -1 131 17 40 23 86 14 101
-4 6 -3 27 3 47 8 31 14 37 36 37 15 0 23 -3 20 -6z m561 -2430 c27 -19 29
-57 2 -84 -16 -16 -24 -18 -44 -9 -31 15 -49 54 -36 79 17 32 45 37 78 14z"/>
<path d="M2120 3350 c0 -5 9 -10 20 -10 11 0 20 5 20 10 0 6 -9 10 -20 10 -11
0 -20 -4 -20 -10z"/>
<path d="M1790 2686 c0 -8 4 -17 9 -20 5 -4 7 3 4 14 -6 23 -13 26 -13 6z"/>
<path d="M2268 165 c-12 -13 5 -45 24 -45 14 0 19 6 16 22 -3 22 -27 35 -40
23z"/>
<path d="M2925 2700 c-3 -5 3 -19 14 -31 22 -24 41 -91 41 -147 0 -52 -17 -99
-50 -142 -15 -19 -32 -45 -39 -57 -6 -13 -17 -23 -24 -23 -7 0 -25 -9 -42 -20
l-30 -20 26 0 c60 0 145 110 177 230 26 98 26 145 2 185 -21 35 -61 48 -75 25z"/>
<path d="M2870 2656 c0 -9 5 -16 10 -16 6 0 10 4 10 9 0 6 -4 13 -10 16 -5 3
-10 -1 -10 -9z"/>
<path d="M2804 2557 c-4 -18 2 -39 21 -71 22 -38 25 -49 14 -62 -7 -8 -18 -13
-25 -10 -7 3 -16 0 -20 -6 -4 -7 -3 -8 4 -4 7 4 12 3 12 -3 0 -6 -9 -15 -21
-22 -15 -7 -18 -14 -11 -21 8 -8 18 -6 36 6 14 9 34 16 45 16 33 0 61 47 61
101 0 48 -1 48 -47 71 -27 12 -51 24 -55 26 -4 2 -10 -8 -14 -21z"/>
<path d="M2758 2304 c-5 -4 -8 -24 -8 -45 0 -28 5 -38 20 -42 17 -4 20 -14 21
-59 l0 -53 18 45 18 45 -28 25 c-17 16 -29 37 -31 58 -2 19 -6 30 -10 26z"/>
</g>
</svg>
